<svg xmlns="http://www.w3.org/2000/svg" xmlns:xlink="http://www.w3.org/1999/xlink" width="500" zoomAndPan="magnify" viewBox="0 0 375 112.499997" height="150" preserveAspectRatio="xMidYMid meet" version="1.0"><defs><g/><clipPath id="be6fd5a176"><path d="M 82 42 L 122 42 L 122 85 L 82 85 Z M 82 42 " clip-rule="nonzero"/></clipPath><clipPath id="ac98e452f8"><path d="M 79.882812 44.957031 L 119.039062 39.222656 L 125.640625 84.289062 L 86.484375 90.023438 Z M 79.882812 44.957031 " clip-rule="nonzero"/></clipPath><clipPath id="c3208290e7"><path d="M 119.097656 39.214844 L 79.941406 44.949219 L 86.542969 90.015625 L 125.699219 84.28125 Z M 119.097656 39.214844 " clip-rule="nonzero"/></clipPath><clipPath id="a55535482e"><path d="M 119.097656 39.214844 L 79.941406 44.949219 L 86.542969 90.015625 L 125.699219 84.28125 Z M 119.097656 39.214844 " clip-rule="nonzero"/></clipPath><clipPath id="af81ac8423"><path d="M 111 70 L 112 70 L 112 71 L 111 71 Z M 111 70 " clip-rule="nonzero"/></clipPath><clipPath id="dc6756add7"><path d="M 79.882812 44.957031 L 119.039062 39.222656 L 125.640625 84.289062 L 86.484375 90.023438 Z M 79.882812 44.957031 " clip-rule="nonzero"/></clipPath><clipPath id="dc9b9b4e2a"><path d="M 119.097656 39.214844 L 79.941406 44.949219 L 86.542969 90.015625 L 125.699219 84.28125 Z M 119.097656 39.214844 " clip-rule="nonzero"/></clipPath><clipPath id="2681837d5b"><path d="M 119.097656 39.214844 L 79.941406 44.949219 L 86.542969 90.015625 L 125.699219 84.28125 Z M 119.097656 39.214844 " clip-rule="nonzero"/></clipPath></defs><g fill="#388e3d" fill-opacity="1"><g transform="translate(2.932405, 72.827806)"><g><path d="M 47.140625 -19.386719 C 44.777344 -13.375 42.488281 -7.726562 40.773438 -7.726562 C 39.484375 -7.726562 38.125 -10.015625 36.050781 -14.59375 C 34.335938 -18.457031 33.691406 -19.601562 32.332031 -20.816406 C 39.054688 -23.890625 42.488281 -30.402344 42.488281 -36.339844 C 42.488281 -44.777344 35.695312 -53.292969 22.03125 -53.292969 C 9.226562 -53.292969 0.644531 -44.777344 0.644531 -34.191406 C 0.644531 -30.902344 2.503906 -28.683594 5.078125 -28.683594 C 7.652344 -28.683594 9.515625 -30.902344 9.515625 -34.191406 C 9.515625 -40.414062 15.878906 -44.351562 21.960938 -44.351562 C 27.324219 -44.351562 32.476562 -41.773438 32.476562 -36.265625 C 32.476562 -31.617188 29.328125 -27.398438 23.320312 -27.398438 L 22.101562 -27.398438 C 22.175781 -28.46875 22.175781 -29.613281 22.175781 -30.757812 C 22.175781 -35.980469 20.957031 -39.34375 16.59375 -39.34375 C 13.519531 -39.34375 11.660156 -37.339844 11.660156 -34.765625 C 11.660156 -33.761719 12.160156 -31.976562 12.160156 -30.757812 C 12.160156 -29.828125 12.160156 -28.898438 12.089844 -27.96875 C 9.800781 -27.683594 8.511719 -25.679688 8.511719 -23.75 C 8.511719 -22.175781 9.371094 -20.53125 11.085938 -19.8125 C 10.730469 -17.523438 10.300781 -15.449219 9.941406 -13.449219 C 9.371094 -10.15625 8.871094 -6.292969 8.871094 -3.21875 C 8.871094 -0.359375 11.375 1.144531 13.878906 1.144531 C 16.378906 1.144531 18.882812 -0.359375 18.882812 -3.363281 C 18.882812 -5.867188 19.457031 -9.871094 20.101562 -13.664062 C 20.386719 -15.378906 20.746094 -17.167969 21.03125 -19.027344 L 22.316406 -19.027344 C 23.890625 -18.742188 24.464844 -16.167969 26.539062 -11.300781 C 29.6875 -3.933594 33.121094 1.214844 39.414062 1.214844 C 45.066406 1.214844 49 -2.933594 53.863281 -16.882812 C 54.007812 -17.3125 54.078125 -17.8125 54.078125 -18.167969 C 54.078125 -20.242188 52.21875 -21.53125 50.359375 -21.53125 C 49.070312 -21.53125 47.710938 -20.886719 47.140625 -19.386719 Z M 47.140625 -19.386719 "/></g></g></g><g fill="#388e3d" fill-opacity="1"><g transform="translate(50.857303, 72.827806)"><g><path d="M 32.402344 -19.386719 C 29.757812 -11.875 23.964844 -7.867188 18.097656 -7.867188 C 13.878906 -7.867188 10.660156 -9.800781 9.941406 -13.304688 C 12.304688 -11.515625 14.734375 -10.871094 17.453125 -10.871094 C 23.75 -10.871094 28.183594 -15.878906 28.183594 -21.03125 C 28.183594 -26.253906 23.75 -31.617188 16.09375 -31.617188 C 6.007812 -31.617188 0.214844 -23.035156 0.214844 -14.664062 C 0.214844 -5.222656 7.867188 1 17.523438 1 C 25.179688 1 34.550781 -3.074219 39.128906 -16.882812 C 39.269531 -17.3125 39.34375 -17.738281 39.34375 -18.167969 C 39.34375 -20.316406 37.410156 -21.601562 35.550781 -21.601562 C 34.265625 -21.601562 32.976562 -20.957031 32.402344 -19.386719 Z M 15.523438 -22.820312 C 17.667969 -22.820312 18.882812 -21.460938 18.882812 -20.027344 C 18.882812 -18.597656 17.597656 -17.097656 15.09375 -17.097656 C 13.804688 -17.097656 12.375 -17.382812 10.445312 -18.382812 C 11.375 -20.886719 13.234375 -22.820312 15.523438 -22.820312 Z M 15.523438 -22.820312 "/></g></g></g><g fill="#388e3d" fill-opacity="1"><g transform="translate(84.040668, 72.827806)"><g/></g></g><g fill="#388e3d" fill-opacity="1"><g transform="translate(103.353689, 72.827806)"><g/></g></g><g fill="#388e3d" fill-opacity="1"><g transform="translate(122.658099, 72.827806)"><g><path d="M 32.402344 -19.386719 C 29.757812 -11.875 23.964844 -7.867188 18.097656 -7.867188 C 13.878906 -7.867188 10.660156 -9.800781 9.941406 -13.304688 C 12.304688 -11.515625 14.734375 -10.871094 17.453125 -10.871094 C 23.75 -10.871094 28.183594 -15.878906 28.183594 -21.03125 C 28.183594 -26.253906 23.75 -31.617188 16.09375 -31.617188 C 6.007812 -31.617188 0.214844 -23.035156 0.214844 -14.664062 C 0.214844 -5.222656 7.867188 1 17.523438 1 C 25.179688 1 34.550781 -3.074219 39.128906 -16.882812 C 39.269531 -17.3125 39.34375 -17.738281 39.34375 -18.167969 C 39.34375 -20.316406 37.410156 -21.601562 35.550781 -21.601562 C 34.265625 -21.601562 32.976562 -20.957031 32.402344 -19.386719 Z M 15.523438 -22.820312 C 17.667969 -22.820312 18.882812 -21.460938 18.882812 -20.027344 C 18.882812 -18.597656 17.597656 -17.097656 15.09375 -17.097656 C 13.804688 -17.097656 12.375 -17.382812 10.445312 -18.382812 C 11.375 -20.886719 13.234375 -22.820312 15.523438 -22.820312 Z M 15.523438 -22.820312 "/></g></g></g><g fill="#388e3d" fill-opacity="1"><g transform="translate(155.847878, 72.827806)"><g><path d="M 32.761719 -19.386719 C 30.257812 -12.375 28.183594 -8.011719 26.824219 -8.011719 C 26.253906 -8.011719 25.894531 -8.511719 25.894531 -9.65625 C 25.894531 -13.304688 27.039062 -20.171875 27.039062 -23.246094 C 27.039062 -27.898438 23.890625 -31.046875 18.957031 -31.046875 C 15.808594 -31.046875 13.160156 -29.472656 11.015625 -26.109375 C 11.015625 -26.753906 11.085938 -27.109375 11.085938 -27.253906 C 11.085938 -30.042969 8.65625 -31.472656 6.292969 -31.472656 C 4.003906 -31.472656 1.644531 -30.1875 1.429688 -27.683594 C 0.929688 -22.246094 0.359375 -14.304688 0.359375 -3.578125 C 0.359375 -0.570312 2.789062 0.929688 5.222656 0.929688 C 7.582031 0.929688 10.015625 -0.570312 10.015625 -3.578125 C 10.015625 -6.507812 10.085938 -9.15625 10.085938 -11.515625 C 10.660156 -18.3125 12.875 -22.246094 15.738281 -22.246094 C 16.808594 -22.246094 17.382812 -21.675781 17.382812 -20.386719 C 17.382812 -18.527344 16.167969 -13.234375 16.167969 -8.226562 C 16.167969 -2.433594 19.457031 0.785156 25.035156 0.785156 C 30.542969 0.785156 34.980469 -3.503906 39.484375 -16.882812 C 39.628906 -17.238281 39.628906 -17.597656 39.628906 -17.953125 C 39.628906 -19.957031 37.625 -21.386719 35.695312 -21.386719 C 34.476562 -21.386719 33.261719 -20.816406 32.761719 -19.386719 Z M 32.761719 -19.386719 "/></g></g></g><g fill="#ff914d" fill-opacity="1"><g transform="translate(189.392746, 72.827806)"><g><path d="M 66.023438 -49.785156 C 64.949219 -52.074219 63.378906 -53.148438 60.875 -53.148438 C 58.15625 -53.148438 56.296875 -51.074219 56.296875 -48.640625 C 56.296875 -47.710938 56.796875 -46.136719 57.726562 -43.777344 C 58.585938 -41.632812 59.441406 -37.839844 59.441406 -33.40625 C 59.441406 -19.027344 54.363281 -8.082031 50.644531 -8.082031 C 48.070312 -8.082031 45.921875 -12.519531 45.921875 -23.460938 C 45.921875 -30.757812 47.425781 -36.625 47.425781 -38.699219 C 47.425781 -41.703125 44.921875 -43.347656 42.417969 -43.347656 C 40.058594 -43.347656 37.699219 -41.917969 37.269531 -38.914062 C 34.050781 -19.242188 27.539062 -8.082031 23.605469 -8.082031 C 21.890625 -8.082031 20.457031 -9.515625 20.457031 -13.519531 C 20.457031 -21.246094 23.820312 -37.625 23.820312 -42.703125 C 23.820312 -48.714844 20.027344 -52.789062 13.734375 -52.789062 C 9.371094 -52.789062 5.722656 -50.929688 3.792969 -48.070312 C 2.859375 -46.710938 2.503906 -45.28125 2.503906 -44.207031 C 2.503906 -41.632812 4.578125 -40.199219 6.722656 -40.199219 C 8.65625 -40.199219 9.65625 -41.203125 10.515625 -42.203125 C 11.660156 -43.492188 12.304688 -44.0625 12.875 -44.0625 C 13.375 -44.0625 13.804688 -43.632812 13.804688 -42.417969 C 13.804688 -38.414062 10.445312 -19.8125 10.445312 -13.375 C 10.445312 -4.148438 15.449219 0.859375 22.53125 0.859375 C 28.96875 0.859375 33.761719 -2.789062 37.554688 -10.585938 C 39.558594 -3.003906 43.707031 0.859375 50.074219 0.859375 C 61.445312 0.859375 69.457031 -12.949219 69.457031 -32.546875 C 69.457031 -38.984375 68.097656 -45.496094 66.023438 -49.785156 Z M 66.023438 -49.785156 "/></g></g></g><g fill="#ff914d" fill-opacity="1"><g transform="translate(257.417496, 72.827806)"><g><path d="M 21.746094 -44.277344 C 21.746094 -43.0625 21.746094 -41.847656 21.746094 -40.703125 C 21.746094 -16.167969 18.957031 -8.082031 15.808594 -8.082031 C 13.375 -8.082031 13.019531 -11.160156 9.65625 -11.160156 C 7.296875 -11.160156 5.507812 -9.371094 5.507812 -6.367188 C 5.507812 -2.859375 9.226562 0.859375 15.449219 0.859375 C 25.25 0.859375 31.761719 -6.292969 31.761719 -40.628906 C 31.761719 -43.132812 31.6875 -45.996094 31.617188 -48.140625 C 31.546875 -50.859375 30.1875 -52.363281 27.109375 -52.789062 C 24.464844 -53.148438 21.386719 -53.363281 18.242188 -53.363281 C 9.226562 -53.363281 4.078125 -48.285156 4.078125 -41.417969 C 4.078125 -35.265625 8.65625 -30.902344 13.804688 -30.902344 C 16.453125 -30.902344 18.242188 -32.976562 18.242188 -35.480469 C 18.242188 -37.484375 17.097656 -38.484375 15.953125 -39.269531 C 14.808594 -40.058594 13.734375 -40.488281 13.734375 -41.632812 C 13.734375 -43.207031 14.949219 -44.421875 18.382812 -44.421875 C 19.742188 -44.421875 20.671875 -44.351562 21.746094 -44.277344 Z M 21.746094 -44.277344 "/></g></g></g><g fill="#ff914d" fill-opacity="1"><g transform="translate(290.178095, 72.827806)"><g><path d="M 3.363281 -13.664062 C 3.363281 -4.578125 10.371094 1.503906 20.386719 1.503906 C 31.472656 1.503906 38.414062 -4.9375 38.414062 -14.164062 C 38.414062 -22.746094 32.117188 -27.183594 26.539062 -31.546875 C 22.101562 -35.050781 18.457031 -38.125 18.457031 -40.628906 C 18.457031 -43.347656 20.53125 -44.636719 22.460938 -44.636719 C 24.25 -44.636719 25.964844 -43.5625 25.964844 -41.488281 C 25.964844 -40.558594 25.824219 -39.699219 25.824219 -38.84375 C 25.824219 -36.480469 27.898438 -34.691406 30.757812 -34.691406 C 34.050781 -34.691406 35.910156 -37.339844 35.910156 -41.917969 C 35.910156 -48.570312 30.042969 -53.363281 22.316406 -53.363281 C 14.09375 -53.363281 8.441406 -47.640625 8.441406 -40.84375 C 8.441406 -34.050781 13.449219 -29.042969 19.171875 -24.820312 C 23.964844 -21.246094 28.398438 -18.097656 28.398438 -13.949219 C 28.398438 -9.515625 24.75 -7.4375 21.101562 -7.4375 C 17.238281 -7.4375 13.375 -9.65625 13.375 -13.664062 C 13.375 -16.308594 14.59375 -18.3125 14.59375 -20.316406 C 14.59375 -22.746094 12.875 -24.535156 9.726562 -24.535156 C 7.367188 -24.535156 5.652344 -23.175781 4.792969 -21.03125 C 3.792969 -18.527344 3.363281 -15.808594 3.363281 -13.664062 Z M 3.363281 -13.664062 "/></g></g></g><g fill="#ff914d" fill-opacity="1"><g transform="translate(327.015888, 72.827806)"><g><path d="M 37.339844 -19.386719 C 34.765625 -12.375 28.898438 -7.726562 23.605469 -7.726562 C 17.953125 -7.726562 15.378906 -11.085938 15.378906 -14.949219 C 15.378906 -19.457031 18.8125 -23.605469 24.964844 -23.605469 C 28.039062 -23.605469 29.542969 -25.824219 29.542969 -28.039062 C 29.542969 -30.328125 28.039062 -32.546875 24.964844 -32.546875 C 20.886719 -32.546875 18.8125 -35.910156 18.8125 -39.054688 C 18.8125 -41.773438 20.386719 -44.351562 23.675781 -44.351562 C 26.039062 -44.351562 27.398438 -42.917969 27.398438 -41.058594 C 27.398438 -40.273438 27.253906 -39.773438 27.253906 -38.628906 C 27.253906 -36.410156 28.898438 -34.835938 31.832031 -34.835938 C 34.335938 -34.835938 36.695312 -36.695312 36.695312 -41.488281 C 36.695312 -48.355469 31.1875 -53.21875 23.75 -53.21875 C 14.09375 -53.21875 9.085938 -46.78125 9.085938 -40.199219 C 9.085938 -35.910156 11.300781 -31.546875 15.878906 -29.042969 C 9.085938 -26.679688 5.4375 -20.601562 5.4375 -13.664062 C 5.4375 -6.007812 10.800781 1.214844 22.390625 1.214844 C 30.972656 1.214844 39.34375 -3.503906 44.0625 -16.882812 C 44.207031 -17.3125 44.277344 -17.738281 44.277344 -18.167969 C 44.277344 -20.242188 42.347656 -21.53125 40.488281 -21.53125 C 39.199219 -21.53125 37.910156 -20.886719 37.339844 -19.386719 Z M 37.339844 -19.386719 "/></g></g></g><g clip-path="url(#be6fd5a176)"><g clip-path="url(#ac98e452f8)"><g clip-path="url(#c3208290e7)"><g clip-path="url(#a55535482e)"><path fill="#388e3d" d="M 91.46875 52.101562 L 91.785156 51.785156 L 92.117188 51.480469 C 92.171875 51.429688 92.226562 51.378906 92.285156 51.328125 L 92.457031 51.1875 C 92.574219 51.089844 92.6875 50.992188 92.808594 50.902344 C 93.046875 50.722656 93.285156 50.535156 93.535156 50.375 C 93.660156 50.292969 93.785156 50.203125 93.910156 50.125 L 94.296875 49.894531 C 95.332031 49.28125 96.460938 48.824219 97.628906 48.515625 C 98.796875 48.199219 100.007812 48.066406 101.21875 48.082031 C 101.371094 48.078125 101.519531 48.089844 101.671875 48.097656 C 101.820312 48.109375 101.972656 48.109375 102.125 48.125 C 102.425781 48.160156 102.726562 48.183594 103.023438 48.234375 C 103.175781 48.261719 103.324219 48.28125 103.472656 48.308594 C 103.578125 48.332031 103.683594 48.332031 103.789062 48.3125 C 110.4375 47.175781 117.050781 53.359375 115.953125 61.917969 C 115.9375 62.050781 115.761719 62.09375 115.6875 61.984375 C 114.429688 60.121094 111.890625 59.808594 109.167969 58.800781 C 106.285156 57.730469 103.191406 55.882812 101.203125 50.578125 C 101.195312 50.558594 101.1875 50.535156 101.179688 50.515625 C 101.105469 50.289062 101.324219 50.074219 101.546875 50.15625 C 101.785156 50.238281 102.019531 50.328125 102.253906 50.417969 C 102.84375 50.648438 103.425781 50.898438 104.007812 51.160156 C 104.296875 51.292969 104.582031 51.429688 104.871094 51.566406 C 105.15625 51.707031 105.441406 51.847656 105.722656 51.996094 C 106.289062 52.285156 106.847656 52.59375 107.398438 52.914062 C 107.949219 53.230469 108.492188 53.566406 109.023438 53.921875 C 109.554688 54.277344 110.070312 54.648438 110.566406 55.050781 C 110.8125 55.25 111.054688 55.457031 111.289062 55.675781 C 111.417969 55.796875 111.542969 55.921875 111.667969 56.050781 C 111.683594 56.066406 111.703125 56.046875 111.691406 56.03125 C 111.578125 55.890625 111.460938 55.757812 111.339844 55.625 C 111.125 55.386719 110.898438 55.160156 110.664062 54.9375 C 110.199219 54.496094 109.707031 54.082031 109.199219 53.683594 C 108.691406 53.285156 108.171875 52.90625 107.640625 52.539062 C 107.109375 52.171875 106.570312 51.820312 106.019531 51.484375 C 105.742188 51.3125 105.46875 51.148438 105.1875 50.984375 C 104.910156 50.820312 104.628906 50.660156 104.34375 50.503906 C 103.960938 50.292969 103.570312 50.085938 103.175781 49.886719 L 103.136719 49.878906 C 103.007812 49.851562 102.875 49.828125 102.746094 49.800781 C 102.484375 49.746094 102.21875 49.71875 101.957031 49.679688 C 101.824219 49.664062 101.691406 49.65625 101.558594 49.644531 C 101.425781 49.632812 101.292969 49.617188 101.15625 49.617188 C 100.089844 49.574219 99.011719 49.65625 97.964844 49.90625 C 96.921875 50.148438 95.898438 50.527344 94.953125 51.050781 L 94.597656 51.25 C 94.480469 51.316406 94.371094 51.390625 94.253906 51.460938 C 94.019531 51.601562 93.804688 51.765625 93.582031 51.917969 C 93.472656 51.996094 93.367188 52.082031 93.261719 52.164062 L 93.101562 52.289062 C 93.046875 52.332031 92.996094 52.378906 92.945312 52.421875 L 92.636719 52.6875 L 92.34375 52.96875 C 90.785156 54.472656 89.644531 56.417969 89.097656 58.527344 C 88.546875 60.636719 88.589844 62.898438 89.230469 64.988281 L 89.355469 65.382812 L 89.5 65.765625 L 89.570312 65.957031 L 89.652344 66.144531 L 89.816406 66.523438 L 90 66.890625 C 90.03125 66.953125 90.0625 67.015625 90.09375 67.074219 L 90.195312 67.253906 L 90.394531 67.613281 L 90.617188 67.960938 L 90.726562 68.136719 L 90.847656 68.304688 L 91.082031 68.640625 L 91.339844 68.964844 C 91.382812 69.019531 91.421875 69.074219 91.46875 69.125 L 91.601562 69.28125 C 91.957031 69.703125 92.351562 70.089844 92.761719 70.457031 C 93.636719 71.230469 94.632812 71.871094 95.703125 72.359375 C 95.496094 72.453125 95.296875 72.550781 95.09375 72.648438 C 94.113281 72.195312 93.191406 71.617188 92.359375 70.925781 C 91.917969 70.550781 91.484375 70.160156 91.097656 69.726562 L 90.953125 69.566406 C 90.902344 69.511719 90.855469 69.453125 90.808594 69.398438 L 90.53125 69.0625 L 90.269531 68.714844 L 90.136719 68.542969 L 90.015625 68.359375 L 89.769531 68 L 89.429688 67.4375 C 89.394531 67.375 89.363281 67.3125 89.328125 67.246094 L 89.121094 66.859375 L 88.933594 66.464844 L 88.839844 66.269531 L 88.59375 65.660156 L 88.445312 65.246094 C 87.691406 63.035156 87.570312 60.601562 88.097656 58.292969 C 88.621094 55.988281 89.796875 53.816406 91.46875 52.101562 Z M 84.753906 77.097656 C 92.863281 87.480469 106.726562 87.054688 112.675781 78.710938 C 112.769531 78.582031 112.886719 78.464844 113.023438 78.378906 C 113.214844 78.25 113.402344 78.109375 113.589844 77.976562 C 113.65625 77.933594 113.722656 77.882812 113.789062 77.835938 C 114.09375 77.613281 114.382812 77.367188 114.683594 77.132812 C 114.859375 76.988281 115.027344 76.828125 115.203125 76.675781 C 115.371094 76.523438 115.550781 76.375 115.710938 76.210938 C 115.78125 76.140625 115.851562 76.070312 115.921875 76 C 117.15625 74.773438 118.25 73.40625 119.117188 71.902344 C 120.046875 70.320312 120.765625 68.621094 121.21875 66.855469 L 121.386719 66.191406 C 121.4375 65.96875 121.476562 65.746094 121.519531 65.523438 C 121.617188 65.078125 121.667969 64.625 121.738281 64.175781 C 121.765625 63.949219 121.78125 63.722656 121.804688 63.496094 L 121.835938 63.15625 C 121.84375 63.042969 121.847656 62.929688 121.851562 62.8125 L 121.882812 62.132812 L 121.878906 61.453125 C 121.820312 57.816406 120.734375 54.222656 118.796875 51.179688 C 116.863281 48.136719 114.085938 45.648438 110.867188 44.078125 L 110.261719 43.789062 L 109.640625 43.527344 L 109.332031 43.402344 L 109.015625 43.289062 L 108.386719 43.0625 L 107.742188 42.867188 C 107.636719 42.835938 107.53125 42.800781 107.421875 42.773438 L 107.097656 42.691406 L 106.449219 42.53125 L 105.792969 42.40625 L 105.460938 42.339844 L 105.132812 42.292969 L 104.46875 42.203125 L 103.804688 42.140625 C 103.691406 42.132812 103.582031 42.117188 103.472656 42.113281 L 103.136719 42.097656 C 102.246094 42.046875 101.355469 42.085938 100.472656 42.15625 C 96.925781 42.46875 93.503906 43.800781 90.675781 45.902344 C 87.84375 48 85.601562 50.871094 84.3125 54.121094 C 84.222656 54.320312 84.15625 54.527344 84.082031 54.730469 C 84.007812 54.9375 83.925781 55.140625 83.863281 55.351562 C 83.738281 55.769531 83.601562 56.179688 83.507812 56.605469 C 83.398438 57.027344 83.300781 57.453125 83.226562 57.882812 C 83.148438 58.308594 83.085938 58.738281 83.039062 59.171875 C 82.847656 60.898438 82.894531 62.648438 83.179688 64.359375 C 82.945312 62.644531 82.953125 60.898438 83.195312 59.191406 C 83.253906 58.765625 83.328125 58.339844 83.417969 57.917969 C 83.503906 57.496094 83.613281 57.082031 83.734375 56.667969 C 83.839844 56.25 83.988281 55.84375 84.125 55.4375 C 84.191406 55.234375 84.28125 55.035156 84.355469 54.835938 C 84.433594 54.636719 84.507812 54.433594 84.601562 54.242188 C 85.964844 51.085938 88.242188 48.355469 91.042969 46.410156 C 93.839844 44.460938 97.164062 43.289062 100.542969 43.09375 C 101.386719 43.050781 102.234375 43.039062 103.074219 43.113281 L 103.390625 43.136719 C 103.496094 43.144531 103.597656 43.160156 103.703125 43.171875 L 104.332031 43.25 L 104.953125 43.355469 L 105.265625 43.410156 L 105.574219 43.480469 L 106.191406 43.617188 L 106.800781 43.789062 L 107.101562 43.871094 C 107.203125 43.902344 107.300781 43.9375 107.402344 43.972656 L 108 44.171875 L 108.585938 44.402344 L 108.878906 44.515625 L 109.167969 44.644531 L 109.738281 44.90625 L 110.296875 45.191406 C 113.265625 46.753906 115.765625 49.144531 117.460938 52 C 119.160156 54.855469 120.046875 58.167969 119.996094 61.457031 L 119.980469 62.074219 L 119.9375 62.6875 C 119.925781 62.789062 119.921875 62.890625 119.910156 62.992188 L 119.875 63.300781 C 119.847656 63.503906 119.828125 63.707031 119.792969 63.910156 C 119.71875 64.3125 119.664062 64.722656 119.5625 65.121094 C 119.515625 65.320312 119.476562 65.519531 119.421875 65.71875 L 119.253906 66.308594 C 118.800781 67.886719 118.109375 69.386719 117.242188 70.765625 C 116.660156 71.710938 115.976562 72.585938 115.21875 73.394531 C 114.863281 73.777344 114.492188 74.144531 114.105469 74.492188 C 113.960938 74.636719 113.800781 74.761719 113.644531 74.890625 C 113.617188 74.914062 113.59375 74.933594 113.566406 74.957031 C 113.4375 75.066406 113.308594 75.175781 113.175781 75.28125 C 112.847656 75.519531 112.53125 75.777344 112.1875 75.996094 C 112.019531 76.105469 111.851562 76.222656 111.683594 76.332031 L 111.632812 76.363281 C 110.988281 76.570312 110.34375 76.765625 109.699219 76.949219 C 109.222656 77.085938 108.746094 77.214844 108.265625 77.339844 C 107.789062 77.460938 107.308594 77.578125 106.828125 77.691406 C 105.863281 77.914062 104.898438 78.113281 103.925781 78.289062 C 102.953125 78.464844 101.980469 78.613281 101 78.726562 C 100.019531 78.839844 99.035156 78.921875 98.050781 78.945312 C 97.558594 78.957031 97.066406 78.957031 96.574219 78.929688 C 96.300781 78.917969 96.027344 78.898438 95.753906 78.871094 C 95.722656 78.867188 95.726562 78.820312 95.757812 78.820312 C 96.03125 78.828125 96.304688 78.828125 96.574219 78.820312 C 97.066406 78.804688 97.550781 78.769531 98.039062 78.722656 C 99.007812 78.621094 99.972656 78.46875 100.929688 78.28125 C 101.886719 78.09375 102.839844 77.875 103.78125 77.628906 C 104.722656 77.382812 105.660156 77.113281 106.589844 76.824219 C 107.054688 76.675781 107.515625 76.523438 107.976562 76.367188 C 108.4375 76.210938 108.894531 76.050781 109.351562 75.882812 C 110.261719 75.546875 111.164062 75.1875 112.050781 74.804688 C 112.402344 74.652344 112.753906 74.492188 113.101562 74.332031 C 113.160156 74.304688 113.210938 74.265625 113.246094 74.222656 C 113.421875 74.019531 113.375 73.6875 113.109375 73.550781 C 113.09375 73.542969 113.078125 73.539062 113.066406 73.53125 C 113.050781 73.523438 113.03125 73.515625 113.015625 73.507812 C 111.523438 72.832031 110.121094 72.332031 108.796875 71.976562 C 108.75 71.964844 108.703125 71.953125 108.65625 71.941406 C 103.050781 70.472656 98.914062 71.632812 95.472656 73.191406 C 95.378906 73.234375 95.285156 73.277344 95.195312 73.320312 C 94.972656 73.421875 94.753906 73.527344 94.539062 73.632812 C 90.949219 75.375 88.085938 77.351562 84.96875 76.742188 C 84.769531 76.703125 84.628906 76.9375 84.753906 77.097656 " fill-opacity="1" fill-rule="nonzero"/></g></g></g></g><g clip-path="url(#af81ac8423)"><g clip-path="url(#dc6756add7)"><g clip-path="url(#dc9b9b4e2a)"><g clip-path="url(#2681837d5b)"><path fill="#388e3d" d="M 111.363281 70.632812 C 111.371094 70.632812 111.460938 70.597656 111.601562 70.398438 L 111.363281 70.632812 " fill-opacity="1" fill-rule="nonzero"/></g></g></g></g></svg>