<svg height="512" viewBox="0 0 152 152" width="512" xmlns="http://www.w3.org/2000/svg" xmlns:xlink="http://www.w3.org/1999/xlink"><linearGradient id="linear-gradient" gradientUnits="userSpaceOnUse" x1="69.87" x2="151.5" y1="63.84" y2="145.47"><stop offset="0" stop-color="#0d47a1"/><stop offset="1" stop-color="#0d47a1" stop-opacity="0"/></linearGradient><linearGradient id="linear-gradient-2" x1="57.8" x2="69.21" xlink:href="#linear-gradient" y1="78.06" y2="89.46"/><g id="Layer_2" data-name="Layer 2"><g id="Color_Icon" data-name="Color Icon"><g id="_01._Facebook" data-name="01. Facebook"><rect id="Background" fill="#4a6ea9" height="152" rx="12" width="152"/><g id="Shadow"><path id="Shadow-2" d="m152 91.37v48.63a12 12 0 0 1 -12 12h-36.57l-36.34-36.34a2.5 2.5 0 0 0 1.45.34h12.52c1.72 0 2.26-.55 2.26-2.29v-32.54h11.68c1.65 0 2.17-.52 2.17-2.15q0-6 0-12.06c0-1.65-.56-2.21-2.2-2.21h-11.62c0-3.08 0-6 0-9 0-2.8 1.43-4.13 4.14-4.13s5.37-.09 8.06-.11c1.44 0 2-.6 2-2 0-3.8 0-7.61 0-11.41a2.12 2.12 0 0 0 -.45-1.5z" fill="url(#linear-gradient)" data-name="Shadow"/><path d="m66.44 81.17v11.06l-11.44-11.4a2.62 2.62 0 0 0 1.46.34z" fill="url(#linear-gradient-2)"/></g><path id="Icon" d="m66.44 81.17h-9.94c-1.56 0-2.12-.57-2.12-2.14q0-6.07 0-12.13c0-1.56.59-2.15 2.13-2.15h9.93v-8.75a21.89 21.89 0 0 1 2.73-11.26 16.51 16.51 0 0 1 8.93-7.42 21.91 21.91 0 0 1 7.65-1.32h9.83c1.41 0 2 .62 2 2v11.41c0 1.43-.6 2-2 2-2.69 0-5.38 0-8.06.11s-4.14 1.33-4.14 4.13c-.06 3 0 5.94 0 9h11.55c1.64 0 2.2.56 2.2 2.21q0 6 0 12.06c0 1.63-.52 2.14-2.17 2.15h-11.64v32.54c0 1.74-.54 2.29-2.26 2.29h-12.52c-1.51 0-2.1-.59-2.1-2.1z" fill="#fff"/></g></g></g></svg>