<svg height="512" viewBox="0 0 152 152" width="512" xmlns="http://www.w3.org/2000/svg" xmlns:xlink="http://www.w3.org/1999/xlink"><linearGradient id="linear-gradient" gradientUnits="userSpaceOnUse" x1="61.53" x2="78.21" y1="67.67" y2="84.36"><stop offset="0" stop-color="#b71c1c"/><stop offset="1" stop-color="#b71c1c" stop-opacity="0"/></linearGradient><linearGradient id="linear-gradient-2" x1="71.68" x2="148.53" xlink:href="#linear-gradient" y1="71.6" y2="148.44"/><g id="Layer_2" data-name="Layer 2"><g id="Color_Icon" data-name="Color Icon"><g id="_02.YouTube" data-name="02.YouTube"><rect id="Background" fill="#f00" height="152" rx="12" width="152"/><g id="Shadow"><path d="m86.54 76.03-21.08 12.23v-24.52z" fill="url(#linear-gradient)"/><path d="m152 92.27v47.73a12 12 0 0 1 -12 12h-47.56l-50.58-50.58a15 15 0 0 0 9.27 3.17h49.74a15.13 15.13 0 0 0 15.13-15.14v-26.9a15.08 15.08 0 0 0 -4.26-10.55z" fill="url(#linear-gradient-2)"/></g><path id="Icon" d="m100.87 47.41h-49.74a15.13 15.13 0 0 0 -15.13 15.14v26.9a15.13 15.13 0 0 0 15.13 15.14h49.74a15.13 15.13 0 0 0 15.13-15.14v-26.9a15.13 15.13 0 0 0 -15.13-15.14zm-35.41 40.85v-24.52l21.08 12.26z" fill="#fff"/></g></g></g></svg>