<svg height="512" viewBox="0 0 152 152" width="512" xmlns="http://www.w3.org/2000/svg" xmlns:xlink="http://www.w3.org/1999/xlink"><radialGradient id="radial-gradient" cx="19.47" cy="135.13" gradientUnits="userSpaceOnUse" r="200.42"><stop offset="0" stop-color="#fae100"/><stop offset=".05" stop-color="#fadc04"/><stop offset=".12" stop-color="#fbce0e"/><stop offset=".18" stop-color="#fcb720"/><stop offset=".25" stop-color="#fe9838"/><stop offset=".31" stop-color="#ff7950"/><stop offset=".49" stop-color="#ff1c74"/><stop offset="1" stop-color="#6c1cd1"/></radialGradient><linearGradient id="linear-gradient" gradientUnits="userSpaceOnUse" x1="61.38" x2="104.65" y1="61.38" y2="104.66"><stop offset="0" stop-color="#833ab4"/><stop offset="1" stop-color="#833ab4" stop-opacity="0"/></linearGradient><linearGradient id="linear-gradient-2" x1="94.4" x2="112.8" xlink:href="#linear-gradient" y1="50.91" y2="69.32"/><linearGradient id="linear-gradient-3" x1="76.66" x2="148.6" xlink:href="#linear-gradient" y1="76.43" y2="148.37"/><g id="Layer_2" data-name="Layer 2"><g id="Color_Icon" data-name="Color Icon"><g id="_03.Instagram" data-name="03.Instagram"><rect id="Background" fill="url(#radial-gradient)" height="152" rx="12" width="152"/><g id="Shadow"><path d="m109.33 80.1q0 6.65-.19 13.31c-.21 9.31-6 14.88-15.27 15.22-4.81.18-9.62.09-14.43.05l-18.07-18.07a20.67 20.67 0 0 1 29.07-29.4l.16.16.19.19z" fill="url(#linear-gradient)"/><path d="m109.33 72.79-14.92-14.92a4.92 4.92 0 0 1 6.59-7.28l.11.1.45.45.11.12 7.46 7.45q.19 7.04.2 14.08z" fill="url(#linear-gradient-2)"/><path d="m110.39 42.71a21.75 21.75 0 0 1 5.88 14.53c.09 2.94.16 5.87.21 8.81.07 4.65.1 9.3.06 14 0 2.4-.05 4.81-.09 7.22s-.1 5-.18 7.53c-.37 11.76-8.88 20.47-20.65 20.9q-4.49.16-9 .24-15 .31-30.1-.25a21 21 0 0 1 -13-4.9l41.25 41.21h55.23a12 12 0 0 0 12-12v-55.69z" fill="url(#linear-gradient-3)"/></g><g id="Icon" fill="#fff"><path d="m116.48 66.05c0-2.94-.12-5.87-.21-8.81a21.75 21.75 0 0 0 -5.88-14.53l-.3-.3-.57-.56a21.39 21.39 0 0 0 -13.9-5.51c-13-.47-26.06-.44-39.07 0-10.8.37-18.36 7.64-20.3 18.31-.34 1.89-.54 3.8-.81 5.7v31.29c.15 1 .36 2 .43 3a23.36 23.36 0 0 0 5.36 13.77 20.45 20.45 0 0 0 2.28 2.28 21 21 0 0 0 13 4.9q15 .57 30.1.25 4.48-.08 9-.24c11.77-.43 20.28-9.14 20.65-20.9q.12-3.77.18-7.53c0-2.41.08-4.82.09-7.22.05-4.6.02-9.25-.05-13.9zm-7.15 14q0 6.65-.19 13.31c-.21 9.31-6 14.88-15.27 15.22-4.81.18-9.62.09-14.43.05h-3.44c-5.88 0-11.76.18-17.63 0-9.25-.34-15-5.79-15.25-15q-.48-17.62 0-35.27c.25-9.21 6-14.79 15.24-15q17.75-.36 35.5 0c9.32.2 15.06 5.9 15.27 15.21v.13q.18 7 .19 14.08c.03 2.44.02 4.88.01 7.32z"/><path d="m90.79 61.56-.19-.19-.16-.16a20.67 20.67 0 0 0 -29.07 29.4 20.67 20.67 0 0 0 29.42-29.05zm-14.79 28a13.56 13.56 0 1 1 13.56-13.56 13.56 13.56 0 0 1 -13.56 13.56z"/><path d="m102.8 54.38a4.92 4.92 0 0 1 -8.39 3.49 4.92 4.92 0 0 1 6.59-7.28l.11.1a3.05 3.05 0 0 1 .44.44l.11.12a4.88 4.88 0 0 1 1.14 3.13z"/></g></g></g></g></svg>